<svg width="105" height="48" viewBox="0 0 105 48" fill="none" xmlns="http://www.w3.org/2000/svg">
<g clip-path="url(#clip0_2051_33)">
<path d="M36.75 0H11.25C5.0368 0 0 5.0368 0 11.25V36.75C0 42.9632 5.0368 48 11.25 48H36.75C42.9632 48 48 42.9632 48 36.75V11.25C48 5.0368 42.9632 0 36.75 0Z" fill="#242938"/>
<path fill-rule="evenodd" clip-rule="evenodd" d="M15.5625 20.625C16.6873 16.1252 19.5002 13.875 24 13.875C30.75 13.875 31.5938 18.9375 34.9688 19.7812C37.2189 20.3439 39.1875 19.5002 40.875 17.25C39.7502 21.7498 36.9373 24 32.4375 24C25.6875 24 24.8438 18.9375 21.4688 18.0938C19.2186 17.5311 17.25 18.3748 15.5625 20.625ZM7.125 30.75C8.24983 26.2502 11.0627 24 15.5625 24C22.3125 24 23.1562 29.0625 26.5312 29.9062C28.7814 30.4689 30.75 29.6252 32.4375 27.375C31.3127 31.8748 28.4998 34.125 24 34.125C17.25 34.125 16.4062 29.0625 13.0312 28.2188C10.7811 27.6561 8.8125 28.4998 7.125 30.75Z" fill="url(#paint0_linear_2051_33)"/>
</g>
<rect x="56" width="48" height="48" rx="11" fill="#242938"/>
<path d="M80.3686 42.8887C79.8603 42.8887 79.3858 42.7531 78.9452 42.5159L74.438 39.8386C73.7602 39.4658 74.0991 39.3303 74.3024 39.2625C75.2174 38.9575 75.3869 38.8897 76.3358 38.3475C76.4374 38.2797 76.573 38.3136 76.6747 38.3814L80.1314 40.4486C80.2669 40.5164 80.4364 40.5164 80.5381 40.4486L94.0599 32.6202C94.1955 32.5524 94.2633 32.4168 94.2633 32.2474V16.6243C94.2633 16.4549 94.1955 16.3193 94.0599 16.2516L80.5381 8.45699C80.4025 8.38921 80.233 8.38921 80.1314 8.45699L66.6095 16.2516C66.4739 16.3193 66.4062 16.4888 66.4062 16.6243V32.2474C66.4062 32.3829 66.4739 32.5524 66.6095 32.6202L70.3034 34.7552C72.3029 35.7719 73.5568 34.5858 73.5568 33.3996V17.9799C73.5568 17.7766 73.7263 17.5732 73.9635 17.5732H75.6919C75.8952 17.5732 76.0985 17.7427 76.0985 17.9799V33.3996C76.0985 36.0769 74.6413 37.6358 72.0996 37.6358C71.3201 37.6358 70.7101 37.6358 68.9817 36.7886L65.4234 34.7552C64.5422 34.2469 64 33.298 64 32.2813V16.6582C64 15.6416 64.5422 14.6926 65.4234 14.1843L78.9452 6.35584C79.7925 5.88139 80.9447 5.88139 81.792 6.35584L95.3139 14.1843C96.195 14.6926 96.7372 15.6416 96.7372 16.6582V32.2813C96.7372 33.298 96.195 34.2469 95.3139 34.7552L81.792 42.5837C81.3514 42.787 80.8431 42.8887 80.3686 42.8887ZM84.537 32.1457C78.6064 32.1457 77.3863 29.4346 77.3863 27.1301C77.3863 26.9267 77.5558 26.7234 77.793 26.7234H79.5553C79.7586 26.7234 79.928 26.859 79.928 27.0623C80.1992 28.8584 80.9786 29.7396 84.5709 29.7396C87.4176 29.7396 88.6376 29.0957 88.6376 27.5706C88.6376 26.6895 88.2987 26.0456 83.8592 25.605C80.1653 25.2323 77.8608 24.4189 77.8608 21.4705C77.8608 18.7255 80.1653 17.0988 84.0287 17.0988C88.3665 17.0988 90.5016 18.5899 90.7727 21.8433C90.7727 21.945 90.7388 22.0467 90.671 22.1483C90.6032 22.2161 90.5016 22.2839 90.3999 22.2839H88.6376C88.4682 22.2839 88.2987 22.1483 88.2648 21.9789C87.8582 20.115 86.8076 19.5049 84.0287 19.5049C80.9108 19.5049 80.5381 20.5894 80.5381 21.4028C80.5381 22.3856 80.9786 22.6906 85.1809 23.2328C89.3493 23.775 91.3149 24.5545 91.3149 27.469C91.281 30.4512 88.841 32.1457 84.537 32.1457Z" fill="#539E43"/>
<defs>
<linearGradient id="paint0_linear_2051_33" x1="16.2187" y1="13.875" x2="30.6562" y2="34.7812" gradientUnits="userSpaceOnUse">
<stop stop-color="#32B1C1"/>
<stop offset="1" stop-color="#14C6B7"/>
</linearGradient>
<clipPath id="clip0_2051_33">
<rect width="48" height="48" fill="white"/>
</clipPath>
</defs>
</svg>
